<?xml version="1.0" standalone="no"?>
<!DOCTYPE svg PUBLIC "-//W3C//DTD SVG 20010904//EN"
 "http://www.w3.org/TR/2001/REC-SVG-20010904/DTD/svg10.dtd">
<svg version="1.0" xmlns="http://www.w3.org/2000/svg"
 width="64.000000pt" height="64.000000pt" viewBox="0 0 64.000000 64.000000"
 preserveAspectRatio="xMidYMid meet">

<g transform="translate(0.000000,64.000000) scale(0.100000,-0.100000)"
fill="#000000" stroke="none">
<path d="M232 494 c-61 -30 -104 -93 -106 -152 -2 -56 24 -48 39 13 31 119
169 164 260 84 60 -53 71 -148 25 -211 -23 -31 -21 -61 4 -52 23 9 66 103 66
145 0 21 -12 60 -28 90 -22 43 -38 59 -81 81 -67 35 -112 35 -179 2z"/>
<path d="M281 261 c-14 -14 -37 -21 -78 -23 -44 -2 -58 -7 -58 -18 0 -11 14
-16 58 -18 41 -2 64 -9 78 -23 10 -10 28 -19 39 -19 26 0 60 34 60 60 0 11 -9
29 -20 40 -25 25 -55 25 -79 1z"/>
</g>
</svg>
